# xmcd
#
# Track frame offsets: 
#        187
#        11955
#        25335
#        45125
#        61615
#        81575
#
# Disc length: 1375 seconds
#
# Revision: 0
# Processed by: cddbd v1.5.1PL0 Copyright (c) Steve Scherf et al.
# Submitted via: ExactAudioCopy v0.95a5
#
DISCID=40055d06
DTITLE=Nitty Gritty Dirt Band - Circle II
DYEAR=1989
DGENRE=Country
TTITLE0=Riding Alone
TTITLE1=Lovin' On The side
TTITLE2=Life's A Railway To Heaven
TTITLE3=You Ain't Going Nowhere
TTITLE4=When I Get My Rewards
TTITLE5=Will The Circle Be Unbroken
EXTD=
EXTT0=
EXTT1=
EXTT2=
EXTT3=
EXTT4=
EXTT5=
PLAYORDER=
